<?xml version="1.0" encoding="UTF-8"?>
<svg id="Camada_1" xmlns="http://www.w3.org/2000/svg" version="1.1" viewBox="0 0 275.48 179.04">
  <!-- Generator: Adobe Illustrator 29.6.1, SVG Export Plug-In . SVG Version: 2.1.1 Build 9)  -->
  <defs>
    <style>
      .st0 {
        fill: #164194;
      }

      .st1 {
        fill: #495fa9;
      }

      .st2 {
        fill: #009fe3;
      }

      .st3 {
        fill: #5bc5f2;
      }
    </style>
  </defs>
  <path class="st3" d="M29.96,4.74L4.74,29.96C1.58,33.12,0,37.27,0,41.41h89.52S52.85,4.74,52.85,4.74c-6.32-6.32-16.57-6.32-22.89,0Z"/>
  <path class="st2" d="M89.52,41.41H0C0,45.55,1.58,49.69,4.74,52.85l25.22,25.22s0,0,0,0l11.44,11.44,48.11-48.11Z"/>
  <path class="st3" d="M41.41,89.52h89.52c0-4.14-1.58-8.28-4.74-11.44l-36.67-36.67-48.11,48.11Z"/>
  <path class="st2" d="M89.52,137.63l36.67-36.67c3.16-3.16,4.74-7.3,4.74-11.44H41.41s48.11,48.11,48.11,48.11Z"/>
  <path class="st0" d="M41.41,89.52l-11.44,11.44s0,0,0,0l-25.22,25.22c-3.16,3.16-4.74,7.3-4.74,11.44h89.52s-48.11-48.11-48.11-48.11Z"/>
  <path class="st1" d="M4.74,149.07l25.22,25.22c6.32,6.32,16.57,6.32,22.89,0l36.67-36.67H0c0,4.14,1.58,8.28,4.74,11.44Z"/>
  <path class="st3" d="M245.52,174.3l25.22-25.22c3.16-3.16,4.74-7.3,4.74-11.44h-89.52s36.67,36.67,36.67,36.67c6.32,6.32,16.57,6.32,22.89,0Z"/>
  <path class="st2" d="M185.97,137.63h89.52c0-4.14-1.58-8.28-4.74-11.44l-25.22-25.22s0,0,0,0l-11.44-11.44-48.11,48.11Z"/>
  <path class="st3" d="M234.08,89.52h-89.52c0,4.14,1.58,8.28,4.74,11.44l36.67,36.67,48.11-48.11Z"/>
  <path class="st2" d="M185.97,41.41l-36.67,36.67c-3.16,3.16-4.74,7.3-4.74,11.44h89.52s-48.11-48.11-48.11-48.11Z"/>
  <path class="st0" d="M234.08,89.52l11.44-11.44s0,0,0,0l25.22-25.22c3.16-3.16,4.74-7.3,4.74-11.44h-89.52s48.11,48.11,48.11,48.11Z"/>
  <path class="st1" d="M270.74,29.96l-25.22-25.22c-6.32-6.32-16.57-6.32-22.89,0l-36.67,36.67h89.52c0-4.14-1.58-8.28-4.74-11.44Z"/>
</svg>