<?xml version="1.0" encoding="UTF-8"?>
<svg id="Camada_1" xmlns="http://www.w3.org/2000/svg" version="1.1" viewBox="0 0 636.67 179.04">
  <!-- Generator: Adobe Illustrator 29.6.1, SVG Export Plug-In . SVG Version: 2.1.1 Build 9)  -->
  <defs>
    <style>
      .st0 {
        fill: #164194;
      }

      .st1 {
        fill: #495fa9;
      }

      .st2 {
        fill: #fff;
      }

      .st3 {
        fill: #009fe3;
      }

      .st4 {
        fill: #5bc5f2;
      }
    </style>
  </defs>
  <g>
    <g>
      <path class="st2" d="M330.28,17.51h21.41l14.23,57.17h.25l18.64-57.17h18.26l18.51,58.68h.25l14.99-58.68h19.9l-26.07,89.16h-17.51l-19.65-61.71h-.25l-19.65,61.71h-16.88l-26.45-89.16Z"/>
      <path class="st2" d="M465.53,17.51h29.47c7.13,0,13.91.8,20.34,2.39,6.42,1.6,12.03,4.18,16.81,7.75,4.79,3.57,8.58,8.21,11.4,13.92,2.81,5.71,4.22,12.64,4.22,20.78,0,7.22-1.37,13.58-4.09,19.08-2.73,5.5-6.4,10.12-11.02,13.85-4.62,3.74-9.95,6.57-15.99,8.5-6.04,1.93-12.38,2.9-19.01,2.9h-32.11V17.51ZM485.17,88.54h10.2c4.53,0,8.75-.46,12.66-1.39,3.9-.92,7.28-2.45,10.14-4.6,2.85-2.14,5.1-4.95,6.74-8.44,1.64-3.48,2.45-7.75,2.45-12.78,0-4.36-.82-8.16-2.45-11.4-1.64-3.23-3.84-5.9-6.61-8-2.77-2.1-6.03-3.67-9.76-4.72-3.74-1.05-7.66-1.57-11.78-1.57h-11.58v52.89Z"/>
      <path class="st2" d="M619.42,40.69c-1.93-2.35-4.3-4.16-7.11-5.42-2.81-1.26-6.07-1.89-9.76-1.89s-7.12.72-10.27,2.14c-3.15,1.43-5.88,3.42-8.18,5.98-2.31,2.56-4.11,5.6-5.42,9.13-1.3,3.53-1.95,7.35-1.95,11.46s.65,8.04,1.95,11.52c1.3,3.48,3.09,6.51,5.35,9.07,2.27,2.56,4.93,4.56,8,5.98,3.06,1.43,6.36,2.14,9.88,2.14,4.03,0,7.6-.84,10.7-2.52,3.1-1.68,5.67-4.03,7.68-7.05l16.37,12.22c-3.78,5.29-8.56,9.19-14.36,11.71-5.79,2.52-11.76,3.78-17.88,3.78-6.97,0-13.39-1.09-19.27-3.27-5.88-2.18-10.96-5.31-15.24-9.38-4.28-4.07-7.62-9-10.01-14.8-2.39-5.79-3.59-12.26-3.59-19.4s1.2-13.6,3.59-19.39c2.39-5.79,5.73-10.72,10.01-14.8,4.28-4.07,9.36-7.2,15.24-9.38,5.87-2.18,12.3-3.27,19.27-3.27,2.52,0,5.14.23,7.87.69,2.73.46,5.42,1.2,8.06,2.2,2.64,1.01,5.18,2.35,7.62,4.03,2.43,1.68,4.62,3.74,6.55,6.17l-15.11,12.34Z"/>
    </g>
    <g>
      <path class="st2" d="M356.81,126.47h4.2l21.29,30.63h.1v-30.63h3.26v34.98h-4.2l-21.29-30.63h-.1v30.63h-3.26v-34.98Z"/>
      <path class="st2" d="M395.25,126.47h21.39v2.96h-18.13v12.45h17v2.96h-17v13.64h18.92v2.96h-22.18v-34.98Z"/>
      <path class="st2" d="M432.31,129.43h-11.96v-2.96h27.17v2.96h-11.96v32.02h-3.26v-32.02Z"/>
      <path class="st2" d="M448.36,126.47h3.36l8.7,30.98h.1l8.84-30.98h4.15l8.84,30.98h.1l8.7-30.98h3.36l-10.18,34.98h-4l-8.84-31.13h-.1l-8.84,31.13h-4l-10.18-34.98Z"/>
      <path class="st2" d="M497.28,143.96c0-2.67.44-5.12,1.33-7.36.89-2.24,2.12-4.17,3.7-5.81,1.58-1.63,3.48-2.91,5.71-3.83,2.22-.92,4.67-1.38,7.34-1.38s5.11.46,7.34,1.38c2.22.92,4.13,2.2,5.71,3.83,1.58,1.63,2.82,3.57,3.71,5.81.89,2.24,1.33,4.69,1.33,7.36s-.44,5.13-1.33,7.39c-.89,2.26-2.12,4.2-3.71,5.83-1.58,1.63-3.48,2.9-5.71,3.8-2.22.91-4.67,1.36-7.34,1.36s-5.11-.45-7.34-1.36c-2.22-.91-4.13-2.17-5.71-3.8-1.58-1.63-2.82-3.57-3.7-5.83-.89-2.26-1.33-4.72-1.33-7.39ZM500.54,143.96c0,2.17.35,4.2,1.04,6.08.69,1.88,1.68,3.51,2.96,4.89,1.28,1.38,2.84,2.47,4.67,3.26,1.83.79,3.88,1.19,6.15,1.19s4.32-.39,6.15-1.19c1.83-.79,3.38-1.88,4.67-3.26,1.28-1.38,2.27-3.01,2.96-4.89.69-1.88,1.04-3.9,1.04-6.08s-.35-4.2-1.04-6.08c-.69-1.88-1.68-3.51-2.96-4.89-1.28-1.38-2.84-2.47-4.67-3.26-1.83-.79-3.88-1.19-6.15-1.19s-4.32.4-6.15,1.19c-1.83.79-3.39,1.88-4.67,3.26-1.28,1.38-2.27,3.01-2.96,4.89-.69,1.88-1.04,3.9-1.04,6.08Z"/>
      <path class="st2" d="M540.75,126.47h9.19c.46,0,1.09.02,1.88.05.79.03,1.65.13,2.57.3.92.17,1.86.43,2.82.79.96.36,1.81.89,2.57,1.58.76.69,1.38,1.57,1.88,2.62.49,1.05.74,2.34.74,3.85,0,1.68-.29,3.06-.86,4.15-.58,1.09-1.3,1.97-2.17,2.64-.87.68-1.84,1.18-2.89,1.51-1.05.33-2.06.56-3.01.69l10.18,16.8h-3.7l-9.83-16.6h-6.08v16.6h-3.26v-34.98ZM544.01,141.89h6.92c1.71,0,3.1-.21,4.17-.64,1.07-.43,1.9-.95,2.5-1.58.59-.63,1-1.3,1.21-2.03.21-.72.32-1.38.32-1.98s-.11-1.25-.32-1.98c-.22-.72-.62-1.4-1.21-2.03-.59-.63-1.43-1.15-2.5-1.58-1.07-.43-2.46-.64-4.17-.64h-6.92v12.45Z"/>
      <path class="st2" d="M570.05,126.47h3.26v15.42h.3l16.95-15.42h4.5l-17.69,16.01,18.68,18.97h-4.69l-17.74-18.08h-.3v18.08h-3.26v-34.98Z"/>
      <path class="st2" d="M601.18,154.98c.86,1.48,1.97,2.59,3.34,3.31,1.37.73,2.92,1.09,4.67,1.09,1.09,0,2.11-.16,3.06-.49.95-.33,1.79-.79,2.5-1.38.71-.59,1.27-1.31,1.68-2.15.41-.84.62-1.79.62-2.84,0-1.22-.26-2.22-.77-3.01-.51-.79-1.19-1.44-2.05-1.95-.86-.51-1.82-.95-2.89-1.31-1.07-.36-2.17-.72-3.31-1.09-1.14-.36-2.24-.77-3.31-1.23-1.07-.46-2.03-1.06-2.89-1.8-.86-.74-1.54-1.67-2.05-2.79-.51-1.12-.77-2.5-.77-4.15,0-1.55.3-2.92.91-4.13.61-1.2,1.43-2.21,2.47-3.01,1.04-.81,2.23-1.42,3.58-1.83,1.35-.41,2.77-.62,4.25-.62,1.91,0,3.68.34,5.31,1.01,1.63.67,3.04,1.8,4.22,3.38l-2.82,2.03c-.82-1.15-1.79-2.02-2.89-2.59-1.1-.58-2.41-.87-3.93-.87-1.05,0-2.06.14-3.01.42-.96.28-1.79.69-2.49,1.24-.71.54-1.28,1.23-1.71,2.05-.43.82-.64,1.8-.64,2.91,0,1.75.44,3.09,1.33,4.03.89.94,2,1.68,3.34,2.22,1.33.54,2.78,1.02,4.35,1.43,1.56.41,3.01.96,4.35,1.66,1.33.69,2.45,1.65,3.33,2.89.89,1.24,1.33,2.94,1.33,5.11,0,1.58-.3,2.98-.89,4.2-.59,1.22-1.39,2.25-2.4,3.09-1,.84-2.17,1.47-3.48,1.9-1.32.43-2.69.64-4.1.64-2.31,0-4.43-.4-6.37-1.21-1.94-.81-3.61-2.17-4.99-4.08l3.11-2.07Z"/>
    </g>
  </g>
  <g>
    <path class="st4" d="M29.96,4.74L4.74,29.96C1.58,33.12,0,37.27,0,41.41h89.52S52.85,4.74,52.85,4.74c-6.32-6.32-16.57-6.32-22.89,0Z"/>
    <path class="st3" d="M89.52,41.41H0C0,45.55,1.58,49.69,4.74,52.85l25.22,25.22s0,0,0,0l11.44,11.44,48.11-48.11Z"/>
    <path class="st4" d="M41.41,89.52h89.52c0-4.14-1.58-8.28-4.74-11.44l-36.67-36.67-48.11,48.11Z"/>
    <path class="st3" d="M89.52,137.63l36.67-36.67c3.16-3.16,4.74-7.3,4.74-11.44H41.41s48.11,48.11,48.11,48.11Z"/>
    <path class="st0" d="M41.41,89.52l-11.44,11.44s0,0,0,0l-25.22,25.22c-3.16,3.16-4.74,7.3-4.74,11.44h89.52s-48.11-48.11-48.11-48.11Z"/>
    <path class="st1" d="M4.74,149.07l25.22,25.22c6.32,6.32,16.57,6.32,22.89,0l36.67-36.67H0c0,4.14,1.58,8.28,4.74,11.44Z"/>
    <path class="st4" d="M245.52,174.3l25.22-25.22c3.16-3.16,4.74-7.3,4.74-11.44h-89.52s36.67,36.67,36.67,36.67c6.32,6.32,16.57,6.32,22.89,0Z"/>
    <path class="st3" d="M185.97,137.63h89.52c0-4.14-1.58-8.28-4.74-11.44l-25.22-25.22s0,0,0,0l-11.44-11.44-48.11,48.11Z"/>
    <path class="st4" d="M234.08,89.52h-89.52c0,4.14,1.58,8.28,4.74,11.44l36.67,36.67,48.11-48.11Z"/>
    <path class="st3" d="M185.97,41.41l-36.67,36.67c-3.16,3.16-4.74,7.3-4.74,11.44h89.52s-48.11-48.11-48.11-48.11Z"/>
    <path class="st0" d="M234.08,89.52l11.44-11.44s0,0,0,0l25.22-25.22c3.16-3.16,4.74-7.3,4.74-11.44h-89.52s48.11,48.11,48.11,48.11Z"/>
    <path class="st1" d="M270.74,29.96l-25.22-25.22c-6.32-6.32-16.57-6.32-22.89,0l-36.67,36.67h89.52c0-4.14-1.58-8.28-4.74-11.44Z"/>
  </g>
</svg>